<svg xmlns="http://www.w3.org/2000/svg" width="21" height="28" viewBox="0 0 21 28"><g><g><g><path fill="none" stroke="#002c90" stroke-linecap="round" stroke-linejoin="round" stroke-miterlimit="50" stroke-width="2" d="M10.179 1.4c-2.444 0-4.788.96-6.51 2.669A8.975 8.975 0 0 0 1 10.5c0 8.196 9.179 16.391 9.179 16.391v0s9.179-8.252 9.179-16.391a8.975 8.975 0 0 0-2.668-6.431A9.248 9.248 0 0 0 10.179 1.4z"/></g><g><path fill="none" stroke="#002c90" stroke-linecap="round" stroke-linejoin="round" stroke-miterlimit="50" stroke-width="2" d="M10.182 13.833c1.901 0 3.442-1.519 3.442-3.392S12.083 7.05 10.182 7.05c-1.9 0-3.442 1.518-3.442 3.391s1.541 3.392 3.442 3.392z"/></g></g></g></svg>