<svg xmlns="http://www.w3.org/2000/svg" width="43" height="45" viewBox="0 0 43 45"><defs><clipPath id="656va"><path d="M0 0h42.457v45.056H0z"/></clipPath></defs><g><g><g><g/><g clip-path="url(#656va)"><path fill="#5d5d5d" d="M42.214 12.193a.867.867 0 0 1 .243.6v28.8a3.472 3.472 0 0 1-3.473 3.463h-25.98a3.473 3.473 0 0 1-3.473-3.465v-7.799H2.598A2.6 2.6 0 0 1 0 31.195V18.193a2.6 2.6 0 0 1 2.598-2.597H9.53V3.471A3.475 3.475 0 0 1 13.003 0h17.108c.236 0 .461.096.625.266zm-11.888-.063h9.423l-9.423-9.79zm-4.33 19.929a.865.865 0 0 0 .864-.864V18.193a.866.866 0 0 0-.865-.864H2.598a.866.866 0 0 0-.865.864v13.002c0 .476.388.864.865.864zm14.728-18.196H29.46a.867.867 0 0 1-.867-.866V1.733h-15.59c-.959 0-1.739.78-1.739 1.738v12.125h14.731a2.6 2.6 0 0 1 2.598 2.597v13.002a2.6 2.6 0 0 1-2.598 2.597H11.264v7.8c0 .954.78 1.731 1.74 1.731h25.98c.96 0 1.74-.776 1.74-1.73z"/></g></g><g><path fill="#5d5d5d" d="M10.36 21.99c.288.374.431.857.432 1.45 0 .457-.083.84-.25 1.152a2.041 2.041 0 0 1-.631.734 2.176 2.176 0 0 1-.78.353c-.358.07-.878.106-1.558.106h-.98v2.808H5.09V21.15h2.412c.913 0 1.51.037 1.787.112.426.111.783.354 1.07.728M9.074 24.04a1 1 0 0 0 .17-.579c0-.27-.08-.494-.239-.67a1.039 1.039 0 0 0-.604-.33c-.18-.034-.54-.05-1.081-.05h-.726v2.111h.822c.593 0 .988-.039 1.188-.117.2-.077.357-.2.47-.365"/></g><g><path fill="#5d5d5d" d="M18.016 23.183c.162.476.244 1.062.244 1.76 0 .612-.077 1.14-.229 1.584-.186.541-.452.98-.797 1.314-.26.254-.613.452-1.056.594-.332.105-.775.158-1.33.158H12.02V21.15h2.747c.619 0 1.091.047 1.416.142.437.129.81.357 1.122.686.311.328.548.73.71 1.205m-1.452 3.057c.102-.334.153-.788.153-1.363 0-.576-.05-1.018-.153-1.326-.102-.308-.244-.548-.428-.72a1.435 1.435 0 0 0-.697-.35c-.21-.048-.623-.072-1.238-.072h-.677v4.93h1.125c.421 0 .725-.024.912-.071.244-.061.447-.164.609-.31.16-.145.292-.385.394-.718"/></g><g><path fill="#5d5d5d" d="M24.642 22.41v-1.26H19.54v7.443h1.503V25.43h3.107v-1.26h-3.107v-1.76z"/></g></g></g></svg>